<?xml version="1.0" standalone="no"?>
<!DOCTYPE svg PUBLIC "-//W3C//DTD SVG 20010904//EN"
 "http://www.w3.org/TR/2001/REC-SVG-20010904/DTD/svg10.dtd">
<svg version="1.0" xmlns="http://www.w3.org/2000/svg"
 width="1500.000000pt" height="1500.000000pt" viewBox="0 0 1500.000000 1500.000000"
 preserveAspectRatio="xMidYMid meet">
<metadata>
Created by potrace 1.14, written by Peter Selinger 2001-2017
</metadata>
<g transform="translate(0.000000,1500.000000) scale(0.100000,-0.100000)"
fill="#000000" stroke="none">
<path d="M7275 14570 c-33 -4 -94 -11 -135 -15 -41 -4 -78 -9 -82 -11 -4 -3
-26 -7 -50 -10 -75 -10 -279 -53 -398 -85 -795 -211 -1523 -687 -2037 -1331
-172 -215 -346 -489 -446 -700 -85 -178 -106 -226 -113 -252 -8 -33 -9 -33
-99 -41 -120 -10 -159 -15 -185 -20 -14 -2 -47 -7 -75 -11 -27 -3 -104 -17
-170 -31 -66 -13 -131 -27 -145 -29 -92 -18 -459 -135 -555 -178 -16 -7 -41
-18 -55 -24 -82 -34 -372 -179 -417 -208 -29 -19 -55 -34 -57 -34 -19 0 -275
-177 -405 -279 -612 -485 -1052 -1112 -1296 -1846 -39 -118 -110 -384 -119
-450 -4 -23 -9 -52 -11 -65 -10 -47 -34 -205 -39 -255 -30 -274 -25 -726 9
-945 13 -86 36 -227 40 -250 29 -159 122 -471 202 -675 50 -128 209 -460 236
-495 7 -8 21 -31 31 -50 25 -46 218 -335 253 -379 184 -227 340 -396 484 -522
35 -31 79 -70 96 -85 l32 -29 -19 -82 c-22 -91 -22 -93 -49 -259 -23 -141 -29
-187 -39 -319 -9 -130 -9 -539 2 -635 23 -221 31 -278 67 -455 233 -1153 1019
-2166 2089 -2692 241 -118 580 -245 740 -277 14 -3 34 -7 45 -10 53 -14 306
-64 355 -70 30 -4 66 -9 80 -11 14 -2 52 -7 85 -10 33 -3 76 -8 95 -10 19 -3
150 -5 290 -6 231 -1 332 3 443 16 61 8 120 16 147 20 14 2 45 7 70 10 36 5
173 33 300 60 32 7 265 77 304 91 23 8 70 26 106 38 183 65 461 198 629 300
99 60 112 64 131 41 7 -8 16 -15 20 -15 4 0 39 -19 76 -42 103 -62 315 -169
434 -217 58 -24 119 -49 135 -56 87 -38 459 -150 535 -161 19 -3 43 -7 52 -10
28 -8 61 -14 158 -29 25 -4 52 -9 61 -10 30 -6 168 -21 274 -31 85 -8 499 -8
575 0 30 3 87 8 125 11 39 3 97 10 130 15 33 5 80 12 105 15 25 3 88 15 140
26 132 28 129 27 150 34 10 3 27 8 37 10 131 28 359 105 553 188 521 220 996
560 1385 992 52 58 224 275 265 335 19 28 40 57 45 63 18 21 110 169 160 257
135 238 244 485 328 745 55 169 120 434 131 535 2 14 7 45 11 70 4 25 9 56 10
70 2 14 5 43 9 65 13 95 20 234 20 430 1 241 -7 366 -34 550 -27 178 -28 185
-56 310 l-25 110 88 80 c510 464 866 986 1083 1590 18 50 36 99 40 110 8 18
38 121 70 240 18 69 59 260 66 311 3 27 8 51 9 54 2 3 6 33 10 65 3 33 8 67
10 75 27 102 27 802 -1 943 -3 20 -8 51 -20 142 -31 231 -157 668 -261 905
-90 206 -243 483 -361 655 -52 74 -203 276 -227 301 -5 6 -35 40 -65 75 -130
152 -392 400 -525 499 -33 25 -62 48 -65 51 -11 14 -320 219 -375 250 -171 94
-220 119 -335 173 -146 69 -287 123 -460 178 -120 37 -298 85 -350 94 -14 2
-45 9 -70 14 -71 15 -163 30 -221 36 -30 3 -65 7 -79 9 -14 3 -61 7 -105 11
-44 3 -83 9 -86 12 -4 4 -32 66 -64 137 -193 434 -452 811 -795 1156 -295 297
-651 555 -1015 737 -125 62 -140 69 -270 125 -156 67 -558 189 -695 211 -19 3
-46 8 -60 11 -14 2 -36 7 -50 10 -37 7 -78 13 -135 20 -69 8 -126 16 -155 22
-43 8 -642 10 -705 3z m625 -1044 c14 -2 47 -7 74 -10 99 -12 184 -29 321 -63
485 -121 963 -391 1309 -739 156 -156 270 -295 381 -464 147 -224 236 -413
330 -692 28 -86 67 -182 86 -214 42 -70 125 -146 198 -184 107 -53 152 -61
388 -65 120 -2 234 -6 253 -9 19 -3 58 -8 85 -11 113 -13 163 -23 355 -70 574
-142 1120 -493 1498 -963 324 -404 524 -857 601 -1362 22 -143 25 -194 26
-415 0 -232 -4 -296 -30 -460 -20 -124 -22 -131 -55 -258 -54 -208 -110 -357
-210 -559 -212 -425 -496 -755 -921 -1067 -123 -89 -174 -145 -214 -229 -68
-143 -68 -262 -1 -467 40 -126 71 -234 82 -290 2 -11 8 -42 14 -70 16 -80 19
-92 30 -173 30 -217 32 -555 5 -737 -3 -16 -7 -48 -10 -70 -24 -172 -93 -433
-161 -608 -92 -235 -264 -538 -402 -709 -139 -172 -323 -359 -462 -471 -117
-95 -313 -223 -449 -296 -344 -183 -692 -287 -1098 -327 -74 -7 -402 -7 -468
0 -27 3 -75 8 -105 12 -123 13 -324 52 -430 84 -36 11 -67 19 -70 19 -9 0
-185 63 -245 88 -174 74 -305 145 -480 258 -94 62 -129 87 -200 143 -70 55
-212 103 -305 103 -144 0 -237 -36 -386 -148 -366 -276 -810 -464 -1264 -533
-293 -45 -642 -45 -885 0 -27 5 -64 12 -82 15 -17 3 -71 14 -120 26 -48 12
-96 22 -105 24 -29 6 -262 85 -295 100 -17 8 -33 15 -36 15 -29 0 -330 160
-462 246 -329 213 -647 532 -844 849 -24 39 -51 81 -61 95 -28 43 -137 261
-174 352 -63 153 -148 434 -161 531 -1 12 -7 49 -13 82 -17 94 -21 124 -29
220 -14 169 -7 510 12 615 2 14 11 68 20 120 20 127 56 271 100 405 67 204 75
287 39 412 -38 131 -112 221 -278 338 -209 147 -429 358 -585 560 -80 103
-201 279 -201 291 0 4 -6 15 -14 23 -29 33 -156 297 -203 421 -129 340 -186
647 -187 1020 -1 232 15 378 65 605 10 50 22 101 25 115 13 60 106 324 148
421 90 205 237 445 383 629 89 111 304 328 419 423 345 282 765 487 1189 578
105 23 133 27 260 44 22 3 58 7 80 10 22 3 137 8 255 10 118 2 238 9 265 16
128 30 271 139 332 255 17 33 50 118 73 189 50 152 84 240 136 350 102 216
271 478 412 640 365 420 829 719 1357 876 111 33 283 73 360 84 28 4 58 9 68
11 9 1 54 6 100 10 45 3 84 8 86 10 5 5 449 -4 481 -10z"/>
<path d="M7473 11575 c-133 -36 -251 -130 -321 -255 -66 -119 -63 -77 -65
-1083 l-2 -911 -40 -14 c-146 -52 -190 -69 -270 -109 -144 -71 -262 -146 -365
-232 -163 -135 -314 -307 -416 -474 -39 -64 -63 -93 -73 -91 -232 54 -633 145
-661 150 -14 3 -101 23 -195 45 -93 22 -217 51 -275 64 -58 14 -145 34 -195
46 -49 11 -101 23 -115 25 -14 3 -33 7 -42 10 -9 3 -25 7 -35 9 -10 2 -101 22
-203 45 -102 23 -205 47 -230 52 -282 59 -559 -114 -624 -391 -28 -121 -3
-282 61 -384 63 -102 178 -192 291 -227 37 -11 146 -38 242 -60 96 -21 245
-55 330 -75 85 -19 223 -51 305 -70 83 -18 330 -75 549 -125 220 -50 402 -93
405 -94 3 -2 26 -7 51 -10 82 -11 135 -32 136 -52 25 -371 176 -752 415 -1048
l47 -59 -31 -48 c-18 -27 -72 -111 -122 -187 -152 -233 -387 -595 -619 -952
-33 -52 -101 -156 -151 -232 -49 -76 -121 -186 -160 -245 -38 -60 -109 -169
-158 -243 -137 -208 -167 -280 -168 -403 -2 -254 162 -465 406 -521 191 -45
405 35 531 199 26 34 377 572 454 695 14 22 65 102 115 178 122 187 287 440
350 537 28 44 92 142 141 217 49 76 132 203 184 283 52 81 97 148 100 150 4 2
27 -2 52 -10 25 -7 63 -16 83 -19 21 -4 40 -8 44 -10 3 -3 25 -7 47 -10 22 -4
49 -8 61 -10 123 -24 440 -24 548 -1 20 5 50 10 115 21 19 3 69 16 112 28 56
17 81 20 87 12 4 -6 123 -182 263 -391 414 -618 841 -1255 992 -1480 77 -115
164 -232 193 -260 52 -51 158 -112 210 -121 15 -2 35 -7 43 -10 36 -14 141
-13 210 2 274 59 445 308 406 591 -13 92 -53 164 -301 533 -138 206 -417 623
-620 925 -202 303 -406 605 -452 672 -45 67 -83 125 -83 128 0 4 20 32 44 63
154 201 272 441 335 681 16 61 28 111 25 111 -2 0 0 10 5 23 5 13 12 52 16 87
5 36 9 74 11 85 1 11 3 30 3 41 1 16 9 23 34 28 55 11 70 14 142 31 39 9 77
18 85 20 15 4 273 62 510 115 74 17 293 67 485 111 193 44 409 94 480 110 72
16 148 34 170 40 22 5 47 11 55 13 49 8 134 45 193 84 267 175 306 556 82 786
-78 79 -186 137 -285 152 -105 16 -135 13 -390 -45 -102 -24 -192 -44 -200
-46 -8 -2 -73 -17 -145 -34 -71 -16 -141 -32 -155 -34 -14 -3 -54 -12 -90 -21
-36 -9 -76 -19 -90 -22 -14 -3 -34 -7 -45 -9 -11 -3 -29 -7 -40 -9 -11 -3 -49
-12 -85 -21 -36 -9 -75 -18 -88 -21 -13 -2 -83 -18 -155 -35 -73 -17 -141 -33
-152 -35 -11 -2 -130 -29 -265 -59 -135 -31 -251 -57 -258 -58 -8 -1 -41 40
-73 92 -196 310 -437 529 -764 696 -66 33 -166 76 -223 95 l-102 35 -1 890 c0
489 -2 899 -4 910 -2 11 -7 36 -11 55 -4 19 -8 41 -10 49 -1 8 -17 44 -35 80
-62 128 -207 240 -347 270 -71 15 -185 13 -249 -4z m355 -3245 c380 -107 638
-447 633 -835 -4 -246 -87 -436 -266 -610 -198 -191 -482 -274 -757 -221 -250
49 -492 237 -600 467 -149 313 -105 662 116 924 67 79 86 95 181 159 116 77
223 119 340 133 22 3 42 7 45 10 12 12 240 -8 308 -27z"/>
</g>
</svg>
