<?xml version="1.0" standalone="no"?>
<!DOCTYPE svg PUBLIC "-//W3C//DTD SVG 20010904//EN"
 "http://www.w3.org/TR/2001/REC-SVG-20010904/DTD/svg10.dtd">
<svg version="1.0" xmlns="http://www.w3.org/2000/svg"
 width="1500.000000pt" height="1500.000000pt" viewBox="0 0 1500.000000 1500.000000"
 preserveAspectRatio="xMidYMid meet">
<metadata>
Created by potrace 1.14, written by Peter Selinger 2001-2017
</metadata>
<g transform="translate(0.000000,1500.000000) scale(0.100000,-0.100000)"
fill="#000000" stroke="none">
<path d="M7330 14574 c-436 -38 -861 -141 -1233 -300 -918 -392 -1655 -1120
-2048 -2021 l-53 -123 -36 0 c-20 0 -109 -9 -198 -20 -1272 -158 -2393 -947
-2977 -2095 -645 -1267 -548 -2768 256 -3951 178 -262 469 -586 682 -758 33
-27 46 -44 42 -55 -16 -42 -76 -373 -92 -506 -21 -188 -24 -653 -5 -830 34
-308 82 -534 173 -813 321 -980 1024 -1798 1944 -2262 434 -218 849 -341 1340
-395 287 -32 744 -19 1045 30 478 77 1015 280 1411 531 26 17 28 16 140 -50
466 -276 1004 -454 1546 -511 194 -20 617 -21 816 -1 675 69 1307 309 1866
709 357 256 698 606 950 977 541 794 768 1776 630 2725 -17 121 -52 301 -74
385 -5 23 8 39 133 153 618 561 1043 1320 1196 2137 46 244 57 356 63 640 6
306 -7 494 -52 750 -296 1715 -1715 3032 -3449 3203 l-128 12 -62 140 c-194
437 -453 813 -800 1161 -504 503 -1125 857 -1806 1029 -321 81 -526 106 -885
110 -159 1 -310 1 -335 -1z m497 -1045 c581 -47 1113 -261 1573 -632 216 -173
478 -470 623 -705 120 -194 236 -450 302 -667 67 -219 172 -337 361 -401 67
-23 95 -27 184 -26 150 1 419 -16 530 -34 140 -22 401 -87 514 -128 953 -346
1650 -1150 1840 -2124 43 -216 50 -305 50 -562 0 -309 -29 -519 -109 -794 -69
-236 -217 -556 -350 -756 -178 -267 -440 -544 -675 -715 -209 -152 -268 -215
-317 -342 -23 -58 -26 -84 -27 -173 0 -100 3 -113 51 -262 187 -571 196 -1149
28 -1720 -172 -583 -560 -1126 -1062 -1486 -493 -353 -1048 -532 -1653 -532
-622 0 -1185 183 -1680 545 -132 96 -169 118 -250 145 -55 19 -80 21 -170 17
-155 -7 -188 -21 -405 -178 -314 -228 -682 -391 -1060 -468 -246 -51 -302 -56
-600 -56 -322 0 -413 10 -690 80 -217 55 -327 95 -550 205 -879 431 -1462
1259 -1576 2235 -21 178 -16 522 10 695 30 200 64 347 121 519 55 170 65 232
50 325 -26 163 -96 267 -257 384 -178 129 -252 192 -389 327 -232 231 -397
460 -545 760 -302 613 -373 1301 -204 1960 217 843 823 1553 1620 1896 363
156 696 225 1121 234 117 2 234 9 260 16 131 31 276 143 332 256 16 32 55 135
86 228 98 292 254 585 451 845 95 126 334 369 465 472 576 455 1290 676 1997
617z"/>
<path d="M7460 11572 c-138 -46 -253 -140 -312 -256 -56 -110 -53 -44 -58
-1055 l-5 -933 -95 -34 c-422 -150 -761 -422 -1000 -802 l-56 -88 -399 91
c-220 51 -670 154 -1000 229 -522 120 -611 138 -685 138 -151 -1 -281 -59
-385 -173 -65 -71 -102 -146 -123 -247 -14 -69 -15 -92 -4 -164 24 -166 129
-317 270 -391 82 -43 -116 5 1832 -440 l274 -63 13 -112 c38 -338 186 -689
406 -961 l44 -54 -505 -776 c-806 -1239 -847 -1303 -872 -1361 -17 -40 -24
-81 -28 -150 -8 -175 34 -288 152 -405 165 -162 385 -198 594 -95 145 72 51
-61 1131 1600 220 338 403 614 408 613 4 0 60 -13 123 -27 173 -38 250 -47
420 -48 170 0 339 19 466 54 44 12 91 22 106 22 25 1 81 -80 717 -1029 391
-583 713 -1054 743 -1086 66 -69 129 -106 231 -136 91 -27 166 -29 255 -8 191
45 353 207 393 395 17 79 7 223 -21 295 -15 38 -196 317 -503 775 -263 393
-580 867 -704 1052 l-225 337 44 58 c218 282 360 638 393 978 l7 70 302 68
c974 222 1659 380 1716 397 78 23 192 99 243 162 78 96 117 207 117 334 0 284
-227 514 -510 516 -90 1 -29 14 -1637 -355 l-452 -103 -75 115 c-158 245 -358
445 -591 589 -115 71 -286 152 -397 188 l-88 28 0 891 c0 601 -4 911 -11 951
-17 90 -68 191 -133 262 -46 49 -79 72 -153 109 -92 46 -95 47 -206 50 -88 2
-124 -1 -167 -15z m363 -3242 c152 -40 276 -112 385 -222 112 -114 173 -214
219 -365 24 -78 27 -105 27 -238 1 -127 -2 -162 -22 -228 -66 -229 -225 -424
-432 -531 -117 -61 -212 -86 -345 -93 -248 -12 -452 61 -628 226 -124 117
-206 254 -247 416 -126 489 198 975 703 1056 82 13 253 2 340 -21z"/>
</g>
</svg>
